PathFileType  4	(X/Y/Z) C:\Users\antoi\Documents\MyRepositories\mobilecap\ResultsAnalysis
DataRate	CameraRate	NumFrames	NumMarkers	Units	OrigDataRate	OrigDataStartFrame	OrigNumFrames
100.0	100.0	6	51	mm	100.0	43	171
Frame#	Time	r_knee			r_shank_antsup			r_ankle			r_calc			r_5meta			r_toe			L_knee			L_shank_antsup			L_ankle			L_calc			L_5meta			L_toe			r_sh2			r_sh3			r_sh4			L_sh2			L_sh3			r_thigh1			r_thigh2			r_thigh3			r_thigh4			r_thigh5			L_thigh1			L_thigh2			L_thigh3			L_thigh4			r.ASIS			r.PSIS			L.ASIS			L.PSIS			C7			R_Shoulder			L_Shoulder			R_Sternum			L_Sternum			R_humerus			R_elbow_med			R_elbow_lat			R_forearm			R_wrist_radius			R_wrist_ulna			L_humerus			L_elbow_med			L_elbow_lat			L_forearm			L_wrist_radius			L_wrist_ulna			R_HJC			L_HJC			R_HJC_reg			L_HJC_reg			
		X1	Y1	Z1	X2	Y2	Z2	X3	Y3	Z3	X4	Y4	Z4	X5	Y5	Z5	X6	Y6	Z6	X7	Y7	Z7	X8	Y8	Z8	X9	Y9	Z9	X10	Y10	Z10	X11	Y11	Z11	X12	Y12	Z12	X13	Y13	Z13	X14	Y14	Z14	X15	Y15	Z15	X16	Y16	Z16	X17	Y17	Z17	X18	Y18	Z18	X19	Y19	Z19	X20	Y20	Z20	X21	Y21	Z21	X22	Y22	Z22	X23	Y23	Z23	X24	Y24	Z24	X25	Y25	Z25	X26	Y26	Z26	X27	Y27	Z27	X28	Y28	Z28	X29	Y29	Z29	X30	Y30	Z30	X31	Y31	Z31	X32	Y32	Z32	X33	Y33	Z33	X34	Y34	Z34	X35	Y35	Z35	X36	Y36	Z36	X37	Y37	Z37	X38	Y38	Z38	X39	Y39	Z39	X40	Y40	Z40	X41	Y41	Z41	X42	Y42	Z42	X43	Y43	Z43	X44	Y44	Z44	X45	Y45	Z45	X46	Y46	Z46	X47	Y47	Z47	X48	Y48	Z48	X49	Y49	Z49	X50	Y50	Z50	X51	Y51	Z51	

43	0.42000000	255.14989	601.66130	-113.32149	267.51606	450.51610	-129.02431	167.59262	98.94494	-158.73880	112.81040	78.07538	-223.21511	305.51945	39.99153	-131.90088	346.95428	63.18211	-182.11598	492.31276	652.92712	-417.27520	552.80144	459.67378	-399.95902	487.18120	150.93067	-384.01221	435.06884	124.57974	-314.69253	629.19014	68.33476	-419.21754	671.42724	112.59290	-371.33305	255.16405	338.81201	-144.57057	204.41168	448.96383	-85.23584	188.46478	336.98565	-93.15072	477.84651	465.07665	-444.88775	473.14058	349.11691	-425.25359	326.35723	886.09168	-68.15317	333.36661	774.09151	-80.12703	270.01683	749.82851	-68.71583	214.14086	884.98008	-82.35744	218.69321	765.82653	-86.08720	430.78700	943.53077	-420.23839	488.43922	822.57747	-418.13286	331.54133	903.37104	-436.40419	392.43363	778.26334	-439.77885	390.19127	1170.53931	-116.12904	192.90439	1205.25282	-181.90742	351.23643	1171.61926	-392.90286	180.70404	1205.85203	-273.81056	290.69819	1692.26649	-199.89772	368.52341	1607.74467	-44.12015	336.78645	1674.46063	-386.34064	418.49360	1582.87090	-196.62304	415.21408	1591.27294	-252.02427	326.87946	1342.75263	23.76261	217.97339	1240.66705	4.46766	241.36023	1261.68165	74.01695	354.38916	1075.99561	78.58926	397.04262	991.16549	71.59902	370.08178	983.47571	97.43081	294.10934	1388.10528	-475.46335	189.27614	1327.50825	-439.61957	216.98426	1323.02208	-511.07869	302.89673	1133.51301	-529.95733	332.58132	1059.64249	-520.49564	310.60619	1060.37831	-545.88643	306.55131	1076.56544	-146.75453	273.91754	1081.12757	-341.46159	312.98409	1087.15085	-146.98727	288.70843	1088.34269	-329.85339	
44	0.43000000	259.70752	601.31321	-112.88380	270.95041	450.15355	-128.55566	167.90223	99.21750	-158.64718	112.97026	78.44206	-223.12242	305.59424	39.79814	-131.77750	347.00827	62.91755	-182.01409	502.20707	651.38549	-415.93317	568.72772	460.42199	-398.21900	514.43230	149.31723	-383.08764	462.98056	121.31792	-313.99881	659.31213	71.17610	-416.95052	699.81344	117.09518	-369.00059	257.47920	338.56186	-144.17530	207.84876	449.14491	-84.75337	190.69464	337.25578	-92.77182	494.02775	463.11390	-443.82860	493.33301	346.88456	-424.24619	333.50745	885.43026	-67.54646	339.72122	773.41670	-79.51740	276.31655	749.53020	-68.15381	221.25813	885.09823	-81.63069	225.04923	765.89482	-85.54601	440.22239	942.11553	-419.30265	497.60349	821.07914	-416.86289	340.90205	902.10179	-435.48433	401.59266	776.88959	-438.53440	398.98645	1169.94524	-115.25102	201.92320	1204.37318	-181.73757	360.92152	1170.48472	-392.05927	189.90063	1204.87699	-273.69411	300.18464	1691.51574	-201.32025	377.56309	1607.56724	-45.00895	346.76351	1672.76905	-387.52740	427.85327	1582.01602	-197.24220	424.52347	1590.14668	-252.65009	336.12960	1342.86428	24.00453	227.33478	1240.45813	5.30063	250.84345	1261.82497	74.73215	364.22240	1076.51574	79.64649	407.38101	991.80802	72.65068	380.59605	984.12605	98.72452	305.00710	1385.92942	-475.68324	200.33125	1325.08312	-439.85798	228.02264	1320.57439	-511.34677	313.96307	1131.14321	-529.83706	343.39035	1057.05754	-520.25084	321.51484	1057.89035	-545.80444	315.48480	1075.85926	-145.95821	283.48805	1080.04644	-340.77944	322.09224	1086.35382	-146.19385	298.18502	1087.35555	-329.04996	
45	0.44000000	264.55728	601.02280	-112.44954	274.54753	449.78607	-128.12303	168.27719	99.55036	-158.55873	113.16550	78.89889	-223.04738	305.64403	39.60138	-131.69220	347.09538	62.66287	-181.91588	511.89725	649.63228	-414.46236	584.19534	461.15809	-396.45231	540.66060	148.13937	-382.06519	489.93698	118.57415	-313.13586	688.11773	74.25853	-414.70773	726.88240	121.66998	-366.70286	259.94883	338.34988	-143.81159	211.47387	449.35315	-84.30760	193.09313	337.57597	-92.41184	509.61995	461.20881	-442.61008	512.78815	344.84530	-423.06586	340.71988	884.78767	-66.91953	346.16172	772.75701	-78.86466	282.70058	749.21821	-67.59174	228.39327	885.24706	-81.03042	231.50357	765.95129	-85.06555	449.71574	940.54432	-418.41246	506.71960	819.34726	-415.66895	350.26977	900.71821	-434.47568	410.62751	775.34953	-437.22546	407.82860	1169.32751	-114.38293	210.99967	1203.45695	-181.60163	370.67687	1169.29169	-391.18860	199.16942	1203.84811	-273.61191	309.72296	1690.72290	-202.85794	386.64375	1607.41534	-45.98027	356.74029	1670.99519	-388.82966	437.18546	1581.14296	-197.92144	433.98140	1588.99148	-253.37402	345.31870	1343.03191	24.22864	236.62030	1240.34163	6.05919	260.20760	1262.06156	75.39243	373.90201	1077.08317	80.71247	417.47176	992.46871	73.71510	390.88711	984.82783	100.05874	315.94599	1383.66508	-475.94854	211.44644	1322.54235	-440.08905	239.07063	1318.01151	-511.62655	325.05429	1128.62500	-529.79930	354.28408	1054.35079	-520.03644	332.37244	1055.21926	-545.79982	324.46946	1075.12448	-145.15626	293.13538	1078.90856	-340.09373	331.24503	1085.54619	-145.39804	307.73786	1086.32357	-328.22251	
46	0.45000000	269.71314	600.81066	-112.02472	278.28777	449.41165	-127.74900	168.71424	99.96222	-158.48988	113.39961	79.46769	-223.00514	305.67065	39.42025	-131.64826	347.22788	62.41648	-181.82986	521.41111	647.68149	-412.88003	599.17496	461.84631	-394.69928	565.82130	147.30342	-380.98007	515.85880	116.27848	-312.17633	715.66282	77.51390	-412.53566	752.66088	126.26751	-364.47276	262.56988	338.16843	-143.50075	215.26814	449.58440	-83.92009	195.65935	337.95153	-92.09301	524.56570	459.34313	-441.22596	531.44181	342.97311	-421.71908	348.00971	884.16344	-66.29373	352.70605	772.11404	-78.19816	289.17503	748.89227	-67.04820	235.54714	885.43349	-80.53363	238.05433	766.01025	-84.63579	459.28865	938.81523	-417.59085	515.80008	817.39060	-414.53556	359.63567	899.22132	-433.38002	419.52907	773.64343	-435.84025	416.73284	1168.69159	-113.53436	220.14553	1202.51378	-181.49568	380.50766	1168.04334	-390.31940	208.53897	1202.75514	-273.55342	319.31615	1689.88849	-204.51125	395.77554	1607.28350	-47.03192	366.73974	1669.13753	-390.24883	446.48826	1580.25464	-198.65082	443.56044	1587.80652	-254.19237	354.44239	1343.25615	24.43262	245.84201	1240.32545	6.74545	269.45515	1262.39425	75.99233	383.44314	1077.69143	81.78023	427.30455	993.13882	74.80005	400.93662	985.57245	101.43451	326.93519	1381.30912	-476.24694	222.60969	1319.90413	-440.32897	250.14311	1315.34153	-511.92374	336.16007	1125.96260	-529.82525	365.28505	1051.57838	-519.83276	343.22635	1052.39602	-545.84860	333.52889	1074.36503	-144.35517	302.86948	1077.71450	-339.40838	340.42924	1084.75453	-144.60342	317.38300	1085.23402	-327.39216	
47	0.46000000	275.13813	600.66927	-111.62008	282.15185	449.03178	-127.44820	169.20421	100.46738	-158.45199	113.67708	80.15711	-223.00363	305.68212	39.26866	-131.64313	347.40800	62.17527	-181.76280	530.77088	645.55071	-411.21506	613.60594	462.42960	-392.98855	589.88927	146.73174	-379.85545	540.70097	114.34712	-311.17689	741.97119	80.90652	-410.47241	777.18590	130.85732	-362.32757	265.33129	338.01231	-143.25328	219.20388	449.83288	-83.60369	198.37920	338.38165	-91.83199	538.84873	457.49415	-439.68013	549.25874	341.23520	-420.21979	355.38392	883.54869	-65.68820	359.36809	771.48638	-77.54919	295.76347	748.55095	-66.54751	242.72953	885.65100	-80.10886	244.68063	766.09116	-84.23639	468.96184	936.93057	-416.85905	524.84728	815.21924	-413.44696	368.98079	897.62439	-432.20485	428.28360	771.77986	-434.36892	425.70856	1168.03729	-112.70921	229.37371	1201.55430	-181.41765	390.42966	1166.73953	-389.47650	218.03015	1201.59968	-273.51408	328.96767	1689.01304	-206.28310	404.96446	1607.16637	-48.16670	376.79417	1667.19404	-391.78414	455.78537	1579.35290	-199.43218	453.23560	1586.59162	-255.10027	363.50593	1343.53403	24.60811	255.00841	1240.41591	7.37080	278.60060	1262.82673	76.53153	392.84584	1078.33084	82.84729	436.87261	993.80587	75.91831	410.72596	986.34714	102.85219	337.97824	1378.85617	-476.57162	233.81549	1317.18318	-440.59360	261.26176	1312.56978	-512.24386	347.26989	1123.16499	-529.89213	376.39202	1048.77118	-519.63022	354.11231	1049.45465	-545.92035	342.67580	1073.58326	-143.56102	312.69892	1076.46716	-338.72835	349.64137	1083.98922	-143.81353	327.13005	1084.07949	-326.57742	
48	0.47000000	280.75980	600.56998	-111.24888	286.12551	448.65066	-127.22192	169.73481	101.07199	-158.44795	114.00118	80.96468	-223.04088	305.69118	39.15390	-131.66780	347.62875	61.93746	-181.71752	539.98772	643.26249	-409.49998	627.41936	462.84290	-391.33486	612.85720	146.36189	-378.69891	564.45209	112.68945	-310.16481	767.03531	84.41691	-408.53747	800.49504	135.41579	-360.26857	268.21600	337.88032	-143.06750	223.25297	450.09266	-83.35886	201.23388	338.85923	-91.63427	552.48829	455.63372	-437.98766	566.23852	339.59155	-418.58695	362.84179	882.92855	-65.11664	366.15263	770.86805	-76.94570	302.50205	748.19164	-66.11190	249.96509	885.87773	-79.72530	251.34110	766.21769	-83.83768	478.74002	934.89669	-416.22581	533.84498	812.84120	-412.39063	378.28387	895.94921	-430.96067	436.88114	769.77723	-432.80611	434.76289	1167.35980	-111.90483	238.69696	1200.58781	-181.36950	400.46853	1165.37824	-388.67375	227.65601	1200.39416	-273.49684	338.67964	1688.09906	-208.17723	414.21525	1607.05995	-49.39124	386.93712	1665.16307	-393.43312	465.12584	1578.43779	-200.27991	462.99611	1585.34835	-256.09303	372.52398	1343.85961	24.74253	264.12245	1240.61489	7.95073	287.66656	1263.36168	77.01336	402.10322	1078.99148	83.91651	446.17705	994.45760	77.08755	420.24060	987.13803	104.31179	349.07380	1376.30295	-476.92191	245.06347	1314.39092	-440.89346	272.44574	1309.70099	-512.59048	358.37677	1120.24457	-529.98140	387.57398	1045.92305	-519.43528	365.04862	1046.42275	-545.98795	351.91351	1072.78010	-142.77830	322.63362	1075.17156	-338.05863	358.88992	1083.24397	-143.03184	336.98723	1082.85989	-325.79069	
